# File created by Blade
# Date/Time:  Tue Sep 28 14:35:47 2010
#---------------------------------------------------------
:version 1.10
:name HOM
:units
  mass 1.0
  length 1.000000
  angle deg
:documentation
     Acclaim Skeleton File
:root
   axis xyz
   order TX TY TZ RX RY RZ
   position 0.000000 0.000000 0.000000
   orientation 0 0 0
:bonedata
   begin
      id 1
      name LeftUpLeg_dum
      direction 1.000000 0.000000 0.000000
      length 3.677894
      axis 0.0 0.0 0.0 xyz
   end
   begin
      id 2
      name RightUpLeg_dum
      direction -1.000000 0.000000 0.000000
      length 3.677894
      axis 0.0 0.0 0.0 xyz
   end
   begin
      id 3
      name Spine_dum
      direction 0.000000 1.000000 0.000000
      length 0.039370
      axis 0.0 0.0 0.0 xyz
   end
   begin
      id 4
      name LeftUpLeg
      direction 0.000000 -1.000000 0.000000
      length 18.389491
      axis 0.0 0.0 0.0 xyz
      dof rx ry rz
   end
   begin
      id 5
      name LeftLeg
      direction 0.000000 -1.000000 0.000000
      length 16.918313
      axis 0.0 0.0 0.0 xyz
      dof rx ry rz
   end
   begin
      id 6
      name LeftFoot
      direction 0.000000 -0.258819 0.965926
      length 6.436326
      axis 15.0 0.0 0.0 xyz
      dof rx ry rz
   end
   begin
      id 7
      name LeftToeBase
      direction 0.000000 0.000000 1.000000
      length 2.952750
      axis 0.0 0.0 0.0 xyz
      dof rx ry rz
   end
   begin
      id 8
      name RightUpLeg
      direction 0.000000 -1.000000 0.000000
      length 18.389491
      axis 0.0 0.0 0.0 xyz
      dof rx ry rz
   end
   begin
      id 9
      name RightLeg
      direction 0.000000 -1.000000 0.000000
      length 16.918313
      axis 0.0 0.0 0.0 xyz
      dof rx ry rz
   end
   begin
      id 10
      name RightFoot
      direction 0.000000 -0.258819 0.965926
      length 6.436326
      axis 15.0 0.0 0.0 xyz
      dof rx ry rz
   end
   begin
      id 11
      name RightToeBase
      direction 0.000000 0.000000 1.000000
      length 2.952750
      axis 0.0 0.0 0.0 xyz
      dof rx ry rz
   end
   begin
      id 12
      name Spine
      direction 0.000000 1.000000 0.000000
      length 9.194745
      axis 0.0 0.0 0.0 xyz
      dof rx ry rz
   end
   begin
      id 13
      name Spine1
      direction 0.000000 1.000000 0.000000
      length 0.000000
      axis 0.0 0.0 0.0 xyz
      dof rx ry rz
   end
   begin
      id 14
      name Spine1_dum1
      direction 0.000000 1.000000 0.000000
      length 9.194745
      axis 0.0 0.0 0.0 xyz
   end
   begin
      id 15
      name Spine1_dum2
      direction 0.000000 1.000000 0.000000
      length 9.194745
      axis 0.0 0.0 0.0 xyz
   end
   begin
      id 16
      name Spine1_dum3
      direction 0.000000 1.000000 0.000000
      length 9.194745
      axis 0.0 0.0 0.0 xyz
   end
   begin
      id 17
      name Neck
      direction 0.000000 1.000000 0.000000
      length 4.229598
      axis 0.0 0.0 0.0 xyz
      dof rx ry rz
   end
   begin
      id 18
      name Head
      direction 0.000000 1.000000 0.000000
      length 4.527550
      axis 0.0 0.0 0.0 xyz
      dof rx ry rz
   end
   begin
      id 19
      name LeftShoulder
      direction 1.000000 -0.000004 0.000000
      length 5.516839
      axis 0.0 0.0 -90.0 xyz
      dof rx ry rz
   end
   begin
      id 20
      name LeftArm
      direction 1.000000 -0.000004 0.000000
      length 11.033679
      axis 0.0 0.0 -90.0 xyz
      dof rx ry rz
   end
   begin
      id 21
      name LeftForeArm
      direction 1.000000 -0.000004 0.000000
      length 10.114232
      axis 0.0 0.0 -90.0 xyz
      dof rx ry rz
   end
   begin
      id 22
      name LeftHand
      direction 0.000000 0.000000 0.000000
      length 0.000000
      axis 0.0 0.0 -90.0 xyz
      dof rx ry rz
   end
   begin
      id 23
      name LeftHand_dum1
      direction 0.000000 0.000000 0.000000
      length 0.000000
      axis 0.0 0.0 -90.0 xyz
   end
   begin
      id 24
      name LeftHand_dum2
      direction 1.000000 -0.000004 0.000000
      length 3.937000
      axis 0.0 0.0 -90.0 xyz
   end
   begin
      id 25
      name LeftHandThumb
      direction 0.000000 0.000000 1.000000
      length 3.937000
      axis 0.0 0.0 -90.0 xyz
      dof rx ry rz
   end
   begin
      id 26
      name RightShoulder
      direction -1.000000 -0.000004 0.000000
      length 5.516839
      axis 0.0 0.0 90.0 xyz
      dof rx ry rz
   end
   begin
      id 27
      name RightArm
      direction -1.000000 -0.000004 0.000000
      length 11.033679
      axis 0.0 0.0 90.0 xyz
      dof rx ry rz
   end
   begin
      id 28
      name RightForeArm
      direction -1.000000 -0.000004 0.000000
      length 10.114232
      axis 0.0 0.0 90.0 xyz
      dof rx ry rz
   end
   begin
      id 29
      name RightHand
      direction 0.000000 0.000000 0.000000
      length 0.000000
      axis 0.0 0.0 90.0 xyz
      dof rx ry rz
   end
   begin
      id 30
      name RightHand_dum1
      direction 0.000000 0.000000 0.000000
      length 0.000000
      axis 0.0 0.0 90.0 xyz
   end
   begin
      id 31
      name RightHand_dum2
      direction -1.000000 -0.000004 0.000000
      length 5.393690
      axis 0.0 0.0 90.0 xyz
   end
   begin
      id 32
      name RightHandThumb
      direction 0.000000 0.000000 1.000000
      length 3.937000
      axis 0.0 0.0 90.0 xyz
      dof rx ry rz
   end
:hierarchy
   begin
      root LeftUpLeg_dum RightUpLeg_dum Spine_dum
      LeftUpLeg_dum LeftUpLeg
      RightUpLeg_dum RightUpLeg
      Spine_dum Spine
      LeftUpLeg LeftLeg
      LeftLeg LeftFoot
      LeftFoot LeftToeBase
      RightUpLeg RightLeg
      RightLeg RightFoot
      RightFoot RightToeBase
      Spine Spine1
      Spine1 Spine1_dum1 Spine1_dum2 Spine1_dum3
      Spine1_dum1 Neck
      Spine1_dum2 LeftShoulder
      Spine1_dum3 RightShoulder
      Neck Head
      LeftShoulder LeftArm
      LeftArm LeftForeArm
      LeftForeArm LeftHand
      LeftHand LeftHand_dum1 LeftHand_dum2
      LeftHand_dum1 LeftHandThumb
      RightShoulder RightArm
      RightArm RightForeArm
      RightForeArm RightHand
      RightHand RightHand_dum1 RightHand_dum2
      RightHand_dum1 RightHandThumb
   end

# File created by Blade
# Date/Time:  Tue Sep 28 14:35:42 2010
# Frame Rate: 200.000 fps
#------------------------------------------------------
:FULLY-SPECIFIED
:DEGREES
1203
root  3.238185 38.531975 97.798013 6.265550 -2.131412 -2.671342
LeftUpLeg  -8.509544 3.056564 0.711187
LeftLeg  11.634704 -0.000000 0.000000
LeftFoot  4.126195 17.594728 4.740763
LeftToeBase  -7.956067 0.000000 -0.000000
RightUpLeg  -10.729242 -28.411081 5.901032
RightLeg  13.956383 -0.000000 0.000000
RightFoot  2.491441 9.907911 -15.959098
RightToeBase  -8.303110 0.000000 -0.000000
Spine  -13.087955 -1.745276 -0.010522
Spine1  7.919656 -0.739145 2.343720
Neck  22.511011 5.647215 -8.619322
Head  -14.418640 3.624730 1.638664
LeftShoulder  -14.674795 -4.074311 -4.354335
LeftArm  -3.701557 -40.427937 4.236423
LeftForeArm  10.360013 -0.000000 0.000000
LeftHand  8.025238 43.251813 4.068687
LeftHandThumb  0.000000 -0.000000 0.000000
RightShoulder  -2.211085 -4.026853 4.594934
RightArm  -2.222519 10.541485 -3.645480
RightForeArm  -0.535489 0.000000 -0.000000
RightHand  -4.566074 -9.161819 -6.917370
RightHandThumb  0.000000 -0.000000 0.000000
1204
root  3.228101 38.538525 97.830164 6.271852 -2.121331 -2.683239
LeftUpLeg  -8.427231 3.004636 0.746748
LeftLeg  11.560714 -0.000000 0.000000
LeftFoot  4.057084 17.587151 4.661608
LeftToeBase  -7.851833 0.000000 -0.000000
RightUpLeg  -10.601191 -28.752314 5.925894
RightLeg  13.727795 -0.000000 0.000000
RightFoot  2.457779 10.169305 -15.873494
RightToeBase  -8.458520 0.000000 -0.000000
Spine  -13.072963 -1.753476 0.010863
Spine1  7.809548 -0.750354 2.369519
Neck  22.375104 5.843941 -8.621561
Head  -14.047444 3.552340 1.696818
LeftShoulder  -14.675145 -4.121015 -4.383030
LeftArm  -3.524166 -36.196827 3.886837
LeftForeArm  10.829719 -0.000000 0.000000
LeftHand  5.409189 38.989300 6.035803
LeftHandThumb  0.000000 -0.000000 0.000000
RightShoulder  -2.212958 -3.697304 4.492065
RightArm  -2.205129 10.095799 -3.625119
RightForeArm  -0.540789 0.000000 -0.000000
RightHand  -4.846969 -9.367449 -6.775790
RightHandThumb  0.000000 -0.000000 0.000000
1205
root  3.219938 38.531146 97.851694 6.275526 -2.126505 -2.693163
LeftUpLeg  -8.385124 2.973424 0.780552
LeftLeg  11.554090 -0.000000 0.000000
LeftFoot  3.910665 17.612492 4.476550
LeftToeBase  -7.828052 0.000000 -0.000000
RightUpLeg  -10.528600 -28.755877 5.903620
RightLeg  13.711970 -0.000000 0.000000
RightFoot  2.447019 10.347564 -15.807450
RightToeBase  -8.498274 0.000000 -0.000000
Spine  -13.054904 -1.775338 0.019680
Spine1  7.808425 -0.773905 2.386557
Neck  22.368905 5.845676 -8.589412
Head  -14.363310 3.678268 1.665625
LeftShoulder  -14.653248 -4.041624 -4.319511
LeftArm  -3.626771 -37.626547 4.024704
LeftForeArm  10.498228 -0.000000 0.000000
LeftHand  6.197019 41.458142 5.631419
LeftHandThumb  0.000000 -0.000000 0.000000
RightShoulder  -2.226344 -3.642740 4.405058
RightArm  -2.202292 10.064821 -3.664703
RightForeArm  -0.523125 0.000000 -0.000000
RightHand  -4.869636 -9.442138 -6.629054
RightHandThumb  0.000000 -0.000000 0.000000
1206
root  3.210953 38.533587 97.869899 6.277795 -2.119352 -2.695140
LeftUpLeg  -8.357662 2.905287 0.803599
LeftLeg  11.531779 -0.000000 0.000000
LeftFoot  4.043121 17.453608 4.832644
LeftToeBase  -8.324923 0.000000 -0.000000
RightUpLeg  -10.476938 -28.855945 5.906827
RightLeg  13.688075 -0.000000 0.000000
RightFoot  2.334018 10.393714 -15.946370
RightToeBase  -8.300833 0.000000 -0.000000
Spine  -13.044540 -1.780241 0.031085
Spine1  7.779363 -0.781420 2.392301
Neck  22.335003 5.739264 -8.558584
Head  -14.337235 3.703357 1.603508
LeftShoulder  -14.640080 -4.036933 -4.350332
LeftArm  -3.503216 -35.566373 3.850883
LeftForeArm  10.619243 -0.000000 0.000000
LeftHand  5.458844 39.023083 6.868961
LeftHandThumb  0.000000 -0.000000 0.000000
RightShoulder  -2.224050 -3.608000 4.354249
RightArm  -2.188681 9.876005 -3.663172
RightForeArm  -0.564776 0.000000 -0.000000
RightHand  -5.130966 -10.031976 -6.794500
RightHandThumb  0.000000 -0.000000 0.000000
1207
root  3.205891 38.530079 97.891728 6.287752 -2.112082 -2.697982
LeftUpLeg  -8.320031 2.927917 0.813212
LeftLeg  11.499224 -0.000000 0.000000
LeftFoot  3.917460 17.436695 4.716594
LeftToeBase  -8.384548 0.000000 -0.000000
RightUpLeg  -10.423405 -28.996532 5.903208
RightLeg  13.597570 -0.000000 0.000000
RightFoot  2.275123 10.470432 -15.678153
RightToeBase  -8.462291 0.000000 -0.000000
Spine  -13.018977 -1.789970 0.049048
Spine1  7.757017 -0.795683 2.417344
Neck  22.253494 5.849550 -8.487187
Head  -14.458302 3.911936 1.496428
LeftShoulder  -14.636866 -4.219228 -4.259725
LeftArm  -3.742542 -38.468371 4.125022
LeftForeArm  10.362051 -0.000000 0.000000
LeftHand  6.414261 41.857649 4.949703
LeftHandThumb  0.000000 -0.000000 0.000000
RightShoulder  -2.246498 -3.496423 4.285734
RightArm  -2.218571 10.119866 -3.715601
RightForeArm  -0.603750 0.000000 -0.000000
RightHand  -4.705040 -9.723108 -6.881630
RightHandThumb  0.000000 -0.000000 0.000000
1208
root  3.195651 38.534979 97.910365 6.295735 -2.100368 -2.700369
LeftUpLeg  -8.287645 2.974205 0.827159
LeftLeg  11.500336 -0.000000 0.000000
LeftFoot  3.915023 17.582677 4.480375
LeftToeBase  -8.039739 0.000000 -0.000000
RightUpLeg  -10.360619 -29.044617 5.901081
RightLeg  13.568161 -0.000000 0.000000
RightFoot  2.297680 10.647937 -15.816942
RightToeBase  -8.388995 0.000000 -0.000000
Spine  -12.994893 -1.800307 0.056326
Spine1  7.759059 -0.808113 2.411174
Neck  22.439517 5.952122 -8.460569
Head  -14.519206 4.254245 1.327529
LeftShoulder  -14.654105 -4.130896 -4.330820
LeftArm  -3.565801 -34.975320 3.859707
LeftForeArm  10.598697 -0.000000 0.000000
LeftHand  4.762360 38.341400 7.275731
LeftHandThumb  0.000000 -0.000000 0.000000
RightShoulder  -2.280932 -3.350015 4.237301
RightArm  -2.214245 9.617102 -3.710965
RightForeArm  -0.503852 0.000000 -0.000000
RightHand  -5.243846 -9.496965 -6.694863
RightHandThumb  0.000000 -0.000000 0.000000
1209
root  3.192126 38.531855 97.933232 6.302132 -2.091913 -2.704800
LeftUpLeg  -8.253005 2.926426 0.835281
LeftLeg  11.474467 -0.000000 0.000000
LeftFoot  3.927898 17.466474 4.715509
LeftToeBase  -8.414399 0.000000 -0.000000
RightUpLeg  -10.287435 -29.202687 5.889392
RightLeg  13.463567 -0.000000 0.000000
RightFoot  2.172142 10.723249 -15.663081
RightToeBase  -8.442491 0.000000 -0.000000
Spine  -12.981525 -1.813371 0.077136
Spine1  7.696652 -0.825313 2.439496
Neck  22.191016 5.629768 -8.542096
Head  -14.699680 3.586651 1.586712
LeftShoulder  -14.631619 -4.424858 -4.201019
LeftArm  -3.915240 -39.774975 4.281057
LeftForeArm  10.260860 -0.000000 0.000000
LeftHand  7.332420 41.795629 4.555845
LeftHandThumb  0.000000 -0.000000 0.000000
RightShoulder  -2.286130 -3.229566 4.145355
RightArm  -2.212421 9.836498 -3.760580
RightForeArm  -0.565843 0.000000 -0.000000
RightHand  -4.843132 -9.574029 -6.932254
RightHandThumb  0.000000 -0.000000 0.000000
1210
root  3.179015 38.530257 97.955435 6.305246 -2.068810 -2.700792
LeftUpLeg  -8.214704 2.943049 0.858726
LeftLeg  11.475344 -0.000000 0.000000
LeftFoot  3.818322 17.583566 4.375769
LeftToeBase  -8.046764 0.000000 -0.000000
RightUpLeg  -10.220596 -29.282597 5.887850
RightLeg  13.419181 -0.000000 0.000000
RightFoot  2.126353 10.804680 -15.763702
RightToeBase  -8.450673 0.000000 -0.000000
Spine  -12.980148 -1.819331 0.087878
Spine1  7.605327 -0.832188 2.425036
Neck  22.136847 5.916648 -8.472820
Head  -14.365852 3.857264 1.533064
LeftShoulder  -14.614740 -4.094163 -4.323678
LeftArm  -3.546051 -34.205428 3.823352
LeftForeArm  10.678784 -0.000000 0.000000
LeftHand  3.588360 37.999471 7.492969
LeftHandThumb  0.000000 -0.000000 0.000000
RightShoulder  -2.281571 -3.108719 4.072054
RightArm  -2.193174 9.986813 -3.782323
RightForeArm  -0.572098 0.000000 -0.000000
RightHand  -5.238952 -10.256323 -6.695267
RightHandThumb  0.000000 -0.000000 0.000000
1211
root  3.178793 38.529779 97.979599 6.320596 -2.050752 -2.708812
LeftUpLeg  -8.177801 2.881328 0.858131
LeftLeg  11.419948 -0.000000 0.000000
LeftFoot  3.871843 17.512464 4.728193
LeftToeBase  -8.450738 0.000000 -0.000000
RightUpLeg  -10.136262 -29.332170 5.860406
RightLeg  13.341092 -0.000000 0.000000
RightFoot  2.118563 10.987556 -15.741351
RightToeBase  -8.471708 0.000000 -0.000000
Spine  -12.932961 -1.842174 0.105319
Spine1  7.574116 -0.858564 2.457043
Neck  22.147625 5.420277 -8.437656
Head  -14.620301 3.773798 1.436432
LeftShoulder  -14.600296 -4.684269 -4.126743
LeftArm  -4.064106 -41.124520 4.433641
LeftForeArm  10.050705 -0.000000 0.000000
LeftHand  7.965572 43.476478 3.967674
LeftHandThumb  0.000000 -0.000000 0.000000
RightShoulder  -2.329984 -3.075206 4.009104
RightArm  -2.209934 9.672398 -3.784081
RightForeArm  -0.565813 0.000000 -0.000000
RightHand  -4.862659 -9.403140 -7.052881
RightHandThumb  0.000000 -0.000000 0.000000
1212
root  3.174110 38.531458 97.999755 6.349646 -2.034295 -2.708599
LeftUpLeg  -8.170104 2.835746 0.874895
LeftLeg  11.443290 -0.000000 0.000000
LeftFoot  3.748707 17.635563 4.506791
LeftToeBase  -7.624625 0.000000 -0.000000
RightUpLeg  -10.119592 -29.383465 5.859085
RightLeg  13.340591 -0.000000 0.000000
RightFoot  2.083444 11.077333 -15.693515
RightToeBase  -8.274261 0.000000 -0.000000
Spine  -12.914116 -1.875114 0.122511
Spine1  7.563305 -0.891488 2.448042
Neck  22.164245 5.400899 -8.315888
Head  -14.789677 3.932344 1.166603
LeftShoulder  -14.615906 -4.669693 -4.121350
LeftArm  -4.199254 -41.108163 4.513707
LeftForeArm  10.008157 -0.000000 0.000000
LeftHand  7.910478 42.991115 3.891394
LeftHandThumb  0.000000 -0.000000 0.000000
RightShoulder  -2.338762 -2.727403 3.962587
RightArm  -2.188361 9.346025 -3.784039
RightForeArm  -0.561285 0.000000 -0.000000
RightHand  -4.767902 -9.381868 -7.247835
RightHandThumb  0.000000 -0.000000 0.000000
